 <svg class="changeTheme" data-theme="dark" width="38" height="40" viewBox="0 0 38 40" fill="none" xmlns="http://www.w3.org/2000/svg" style="display: block;"> <path d="M15 0.695136C15.244 0.991667 15.3935 1.35457 15.4292 1.73694C15.4648 2.11932 15.385 2.5036 15.2 2.84014C13.7546 5.49382 12.9998 8.46837 13.005 11.4901C13.005 21.5426 21.2 29.6826 31.3 29.6826C32.6175 29.6826 33.9 29.5451 35.1325 29.2826C35.5103 29.2008 35.9039 29.2321 36.264 29.3726C36.6241 29.5131 36.9349 29.7566 37.1575 30.0726C37.3925 30.4013 37.5123 30.7983 37.4983 31.2021C37.4842 31.6058 37.3372 31.9936 37.08 32.3051C35.1192 34.7137 32.6456 36.6544 29.8396 37.9856C27.0335 39.3168 23.9658 40.0051 20.86 40.0001C9.335 40.0001 0 30.7151 0 19.2751C0 10.6651 5.285 3.28014 12.81 0.150136C13.1848 -0.00828447 13.601 -0.0407995 13.9959 0.057475C14.3908 0.15575 14.7431 0.379507 15 0.695136V0.695136Z" fill="#222222"></path></svg>